# xmcd
# Track frame offsets:
# 150
# 13258
# 26479
# 38894
# 50691
# 61568
# 73361
# 85555
# 97879
# 109610
# 121179
# 132310
# 145017
# 157426
# 168455
# 181047
# 192691
# 204432
# 216145
# 228443
#
# Disc length: 3228 seconds
# Revision: 0
# Processed by: cddbd v1.5.1PL2 Copyright (c) Steve Scherf et al.
# Submitted via: VisiTrax 2.10.0.248 - For more info visit www.synapsa.com
#
DISCID=190c9a14
DTITLE=Hank Williams - Country Legend
DYEAR=2006
DGENRE=Country and Western
TTITLE0=Jambalaya (On The Bayou)
TTITLE1=Hey Good Looking
TTITLE2=Move It On Over
TTITLE3=Take These Chains From My Heart
TTITLE4=Why Don't You Love Me
TTITLE5=Settin' The Woods On Fire
TTITLE6=Your Cheatin' Heart
TTITLE7=Howling At The Moon
TTITLE8=You Win Again
TTITLE9=My Bucket's Got A Hole In It
TTITLE10=Crazy Heart
TTITLE11=I Just Don't Like This Kind Of Loving
TTITLE12=I Won't Be Home No More
TTITLE13=I'll Never Get Out Of This World Alive
TTITLE14=I'm So Lonesome I Could Cry
TTITLE15=Kaw-Liga
TTITLE16=My Son Calls Another Man Daddy
TTITLE17=Dear John
TTITLE18=Half As Much
TTITLE19=Ramblin' Man
EXTD=Subbed by www.songofthesalesman.co.uk Mikeydred
EXTT0=
EXTT1=
EXTT2=
EXTT3=
EXTT4=
EXTT5=
EXTT6=
EXTT7=
EXTT8=
EXTT9=
EXTT10=
EXTT11=
EXTT12=
EXTT13=
EXTT14=
EXTT15=
EXTT16=
EXTT17=
EXTT18=
EXTT19=
PLAYORDER=
